<svg id="Layer_1" data-name="Layer 1" xmlns="http://www.w3.org/2000/svg" viewBox="0 0 256 256"><title>go-back</title><path d="M128,255.5A127.5,127.5,0,1,1,255.5,128,127.64,127.64,0,0,1,128,255.5ZM155.36,50.15a7.44,7.44,0,0,0-5.3,2.19L79.34,123.06a6.72,6.72,0,0,0,0,9.89l70.72,70.72a7.5,7.5,0,1,0,10.61-10.61L95.61,128l65.06-65.06a7.49,7.49,0,0,0-5.31-12.79Z"/><path d="M128,1a127,127,0,0,1,89.8,216.8A127,127,0,1,1,38.2,38.2,126.17,126.17,0,0,1,128,1m27.36,205.35A8,8,0,0,0,161,192.7L96.31,128,161,63.3a8,8,0,0,0-5.66-13.65A7.94,7.94,0,0,0,149.7,52L79,122.7A7.88,7.88,0,0,0,76.67,128V128A7.88,7.88,0,0,0,79,133.3L149.7,204a7.94,7.94,0,0,0,5.65,2.33M128,0A128,128,0,1,0,256,128,128,128,0,0,0,128,0Zm27.36,205.35a7,7,0,0,1-4.95-2L79.69,132.59a6.22,6.22,0,0,1,0-9.18l70.72-70.72a7,7,0,0,1,9.9,9.9L94.9,128l65.41,65.41a7,7,0,0,1-5,11.94Z"/></svg>