<?xml version="1.0" encoding="utf-8"?>
<!-- Generator: Adobe Illustrator 16.0.3, SVG Export Plug-In . SVG Version: 6.00 Build 0)  -->
<!DOCTYPE svg PUBLIC "-//W3C//DTD SVG 1.1//EN" "http://www.w3.org/Graphics/SVG/1.1/DTD/svg11.dtd">
<svg version="1.1" id="Ebene_1" xmlns="http://www.w3.org/2000/svg" xmlns:xlink="http://www.w3.org/1999/xlink" x="0px" y="0px"
	 width="200px" height="200px" viewBox="0 0 200 200" enable-background="new 0 0 200 200" xml:space="preserve">
<path d="M117.729,57.03h-58.28c-3.495,0-6.332,2.836-6.332,6.336v53l12.666-8.309V69.705h45.615v71.763h-45.61v-15.426
	c-0.063,0.057-0.14,0.091-0.198,0.144c0.046-2.151,0.081-3.999,0.081-4.758c-36.193,25.899-36.432,28.957-34.843,31.247
	c1.252,1.813,3.416,2.685,22.298-8.99v4.133c0,3.486,2.837,6.323,6.332,6.323h58.28c3.504,0,6.341-2.837,6.341-6.323V63.366
	C124.07,59.866,121.234,57.03,117.729,57.03z"/>
<path d="M177.252,51.759c-1.235-1.795-6.942-0.195-27.968,12.941V38.146c0-3.497-2.836-6.331-6.331-6.331H84.675
	c-3.496,0-6.334,2.834-6.334,6.331v6.339h12.665h45.615v71.761v12.664h6.332c3.495,0,6.331-2.828,6.331-6.328v-44.87
	C174.291,59.214,178.609,53.726,177.252,51.759z"/>
</svg>
