<?xml version="1.0" encoding="utf-8"?>
<!-- Generator: Adobe Illustrator 16.0.3, SVG Export Plug-In . SVG Version: 6.00 Build 0)  -->
<!DOCTYPE svg PUBLIC "-//W3C//DTD SVG 1.1//EN" "http://www.w3.org/Graphics/SVG/1.1/DTD/svg11.dtd">
<svg version="1.1" id="Ebene_1" xmlns="http://www.w3.org/2000/svg" xmlns:xlink="http://www.w3.org/1999/xlink" x="0px" y="0px"
	 width="200px" height="200px" viewBox="0 0 200 200" enable-background="new 0 0 200 200" xml:space="preserve">
<path d="M114.493,146.051c6.218-5.003,18.485-15.103,26.848-23.526c1.005-0.997,24.553-24.886,17.616-32.536
	c-3.536-3.886-9.218-2.148-17.076,0.264c-0.765,0.239-1.675,0.507-2.61,0.796c3.03-5.929,7.95-14.675,11.895-21.68
	c18.685-33.214,20.767-37.679,15.867-41.81c-4.87-4.129-9.601-0.674-33.888,18.285c-6.113,4.771-14.425,11.261-19.898,15.041
	c0.223-2.062,0.532-4.304,0.773-5.997c1.389-9.993,2.303-16.58-2.934-19.202c-6.262-3.178-18.883,8.704-25.862,16.022
	c-9.49,9.964-23.126,24.854-28.763,31.053c-10.59,7.886-17.49,20.473-17.49,34.652c0,23.847,19.391,43.229,43.231,43.229
	C95.05,160.626,106.57,154.974,114.493,146.051z M93.126,59.236c3.902-4.089,7.645-7.341,10.581-9.625
	c-0.166,1.317-0.35,2.629-0.508,3.753c-1.384,9.937-2.379,17.116,2.417,20.304c4.827,3.217,9.205,0.317,34.253-19.235
	c3.683-2.864,8.179-6.371,12.326-9.503c-3.295,6.174-7.339,13.361-10.547,19.069c-15.851,28.146-17.293,31.458-15.427,35.369
	c2.938,6.196,10.681,3.823,18.859,1.313c0.107-0.025,0.212-0.063,0.324-0.088c-2.843,4.119-6.94,9.347-11.808,14.242
	c-2.53,2.544-5.489,5.299-8.531,8.021c0.224-1.796,0.382-3.611,0.382-5.461c0-23.834-19.394-43.232-43.238-43.232
	c-1.076,0-2.136,0.086-3.191,0.167C83.823,69.108,88.897,63.671,93.126,59.236z M51.105,117.388
	c0-17.139,13.951-31.094,31.101-31.094c17.151,0,31.101,13.946,31.101,31.094c0,17.151-13.949,31.107-31.101,31.107
	C65.057,148.49,51.105,134.539,51.105,117.388z"/>
</svg>
