<?xml version="1.0" encoding="utf-8"?>
<!-- Generator: Adobe Illustrator 16.0.3, SVG Export Plug-In . SVG Version: 6.00 Build 0)  -->
<!DOCTYPE svg PUBLIC "-//W3C//DTD SVG 1.1//EN" "http://www.w3.org/Graphics/SVG/1.1/DTD/svg11.dtd">
<svg version="1.1" id="Ebene_1" xmlns="http://www.w3.org/2000/svg" xmlns:xlink="http://www.w3.org/1999/xlink" x="0px" y="0px"
	 width="200px" height="200px" viewBox="0 0 200 200" enable-background="new 0 0 200 200" xml:space="preserve">
<path d="M56.133,57.995c4.139,0,7.496-7.223,7.496-7.223h71.213v71.377c-0.017,0.041-0.037,0.062-0.054,0.09
	c-0.065,0.115-1.322,7.303-6.975,13.341c-6.776,7.254-18.877,14.466-30.829,14.622c-37.718,0.477-36.453-17.785-40.775-15.805
	c-4.34,2.013-5.219,4.091-3.219,8.437c0.446,0.969,10.788,21.234,43.343,21.234c23.768,0,40.386-14.4,47.877-23.519
	c0.76-0.928,5.364-6.687,5.595-11.611c0-0.078-0.017-0.136-0.017-0.214c0.008-0.11,0.049-0.242,0.049-0.357V35.778
	c0-4.146-3.359-5.526-7.499-5.526c-4.141,0-7.496,1.38-7.496,5.526H56.133c-4.138,0-7.494,3.352-7.494,7.496
	c0,0-0.552,7.603,0.84,11.338C50.834,58.233,54.098,57.995,56.133,57.995z"/>
<path d="M77.684,123.861V67.643c0-2.486-2.014-4.497-4.495-4.497c-2.48,0-4.495,2.017-4.495,4.497v56.219
	c0,2.485,2.015,4.502,4.495,4.502C75.674,128.363,77.684,126.347,77.684,123.861z"/>
<path d="M99.235,123.861V67.643c0-2.486-2.015-4.497-4.491-4.497c-2.487,0-4.5,2.017-4.5,4.497v56.219
	c0,2.485,2.013,4.502,4.5,4.502C97.225,128.363,99.235,126.347,99.235,123.861z"/>
<path d="M121.916,123.861V67.643c0-2.486-2.013-4.497-4.489-4.497c-2.493,0-4.498,2.017-4.498,4.497v56.219
	c0,2.485,2.013,4.502,4.498,4.502C119.899,128.363,121.916,126.347,121.916,123.861z"/>
</svg>
