<?xml version="1.0" encoding="utf-8"?>
<!-- Generator: Adobe Illustrator 16.0.3, SVG Export Plug-In . SVG Version: 6.00 Build 0)  -->
<!DOCTYPE svg PUBLIC "-//W3C//DTD SVG 1.1//EN" "http://www.w3.org/Graphics/SVG/1.1/DTD/svg11.dtd">
<svg version="1.1" id="Ebene_1" xmlns="http://www.w3.org/2000/svg" xmlns:xlink="http://www.w3.org/1999/xlink" x="0px" y="0px"
	 width="200px" height="200px" viewBox="0 0.5 200 200" enable-background="new 0 0.5 200 200" xml:space="preserve">
<path d="M99.598,174.394c0.588,1.418,1.982,2.355,3.531,2.355c1.541,0,2.934-0.928,3.521-2.355l48.197-116.351
	c0.526-1.28,0.321-2.747-0.532-3.837c-0.849-1.089-2.243-1.642-3.592-1.403l-21.167,3.349v-34.92c0-4.217-3.428-7.643-7.645-7.643
	c-4.227,0-7.645,3.426-7.645,7.643v37.351l-11.144,1.753L91.98,58.582V21.231c0-4.217-3.419-7.643-7.643-7.643
	c-4.221,0-7.643,3.426-7.643,7.643v34.92l-21.167-3.349c-1.366-0.225-2.742,0.314-3.599,1.403c-0.857,1.09-1.059,2.557-0.534,3.837
	L99.598,174.394z M73.381,76.451c0.225-0.435,0.651-0.744,1.137-0.816c1.156-0.173,2.374-0.25,3.617-0.25
	c8.706,0,17.78,4.002,22.414,6.381c1.577,0.814,3.296,0.905,4.539,0.259c4.491-2.401,13.792-6.42,25.584-6.42l0.849,0.012
	c0.401,0,0.774,0.16,1.06,0.434c0.807,0.812,1.188,1.868,1.123,3.123c-0.232,4.552-9.053,12.729-16.819,19.956
	c-3.918,3.634-8.354,7.757-8.517,8.765c0.009,0.135,0.037,0.173,0.037,0.182c0,0,0.074,0.042,0.284,0.042c0.005,0,0.005,0,0.014,0
	l4.049,10.472l-8.169,26.456c-0.208,0.653-0.793,1.082-1.463,1.082c-0.674,0-1.257-0.429-1.462-1.082l-8.21-26.601l4.054-10.5
	c0.2,0,0.264-0.037,0.264-0.037c-0.233-0.783-3.725-4.076-6.806-6.996C82.409,92.834,70.684,81.757,73.381,76.451z"/>
</svg>
