<?xml version="1.0" encoding="utf-8"?>
<!-- Generator: Adobe Illustrator 16.0.3, SVG Export Plug-In . SVG Version: 6.00 Build 0)  -->
<!DOCTYPE svg PUBLIC "-//W3C//DTD SVG 1.1//EN" "http://www.w3.org/Graphics/SVG/1.1/DTD/svg11.dtd">
<svg version="1.1" id="Ebene_1" xmlns="http://www.w3.org/2000/svg" xmlns:xlink="http://www.w3.org/1999/xlink" x="0px" y="0px"
	 width="200px" height="200px" viewBox="0 0 200 200" enable-background="new 0 0 200 200" xml:space="preserve">
<path d="M56.88,91.551c1.075,2.179,7.475,1.264,38.775-13.821c0,0.02,0.007,0.04,0.007,0.059c-0.361,0.218-0.763,0.368-1.085,0.665
	L75.712,95.494c-2.919,2.628-3.226,7.104-0.695,10.111l17.988,21.393l2.357,21.226c0,4.034,0.913,7.462,4.945,7.462
	c4.035,0,5.398-3.73,5.398-7.755l1.904-21.073l16.784-21.442c2.374-3.037,1.98-7.398-0.903-9.952l-18.975-16.87
	c33.428,18.033,35.735,16.936,36.943,14.723c1.203-2.206,0.919-4.697-31.492-22.613c33.122-16.553,33.505-19.034,32.392-21.272
	c-1.116-2.279-3.401-3.47-37.97,13.396c0.007-0.863,0.017-1.703,0.017-2.635c0-22.875-2.144-26.663-4.788-26.663
	c-2.643,0-4.785,3.785-4.785,26.663c0,0.816,0.006,1.55,0.013,2.313C65.166,46.708,58.931,45.572,57.78,47.68
	c-1.137,2.081,3.087,6.631,31.596,22.603C60.239,85.054,55.828,89.416,56.88,91.551z M99.621,87.07l11.563,11.104l-11.081,14.581
	L88.059,98.029L99.621,87.07z"/>
</svg>
