<?xml version="1.0" encoding="utf-8"?>
<!-- Generator: Adobe Illustrator 16.0.3, SVG Export Plug-In . SVG Version: 6.00 Build 0)  -->
<!DOCTYPE svg PUBLIC "-//W3C//DTD SVG 1.1//EN" "http://www.w3.org/Graphics/SVG/1.1/DTD/svg11.dtd">
<svg version="1.1" id="Ebene_1" xmlns="http://www.w3.org/2000/svg" xmlns:xlink="http://www.w3.org/1999/xlink" x="0px" y="0px"
	 width="200px" height="200px" viewBox="0 0 200 200" enable-background="new 0 0 200 200" xml:space="preserve">
<g>
	<path d="M70.734,41.337c5.498,4.673,13.196,10.916,23.822,19.212c8.869,6.793,20.084,15.393,34.239,26.247
		c0,0.004,0.007,0.004,0.011,0.011h-0.018l-0.004-0.007c-0.042,0.021-0.007,0.007,0.011-0.004c-0.014,0.004-0.095,0.044-0.42,0.218
		c-0.955,0.518-1.916,0.967-2.892,1.554c-2.043,1.197-3.973,2.369-6.044,4.224l-1.873,2.183c-0.644,0.717-1.263,1.421-1.563,2.343
		c-0.559,1.838-0.396,3.796,0.262,5.585c0.297,0.834,0.795,1.93,1.131,2.499l0.933,1.52c0.626,0.943,1.248,1.785,1.863,2.584
		c1.223,1.59,2.421,3.019,3.559,4.396c2.263,2.722,4.355,5.235,5.832,7.536c0.729,1.109,1.272,2.205,1.471,2.877
		c0.099,0.269,0.057,0.162,0.057,0.269c-3.98,5.69-6.758,11.516-9.451,14.916c-0.318,0.389-0.629,0.763-0.934,1.131
		c-0.096,0.099-0.251,0.229-0.402,0.194c-0.156-0.067-0.248-0.106-0.425-0.272c-0.035,0-0.308-0.374-0.587-0.749l-0.76-1.103
		c-3.927-6.172-6.245-11.219-8.037-14.364c-3.517-6.49-4.612-6.709-5.726-6.313c-1.061,0.39-1.962,1.322,0.031,8.625
		c1.117,3.658,2.602,8.851,6.589,16.386c0.282,0.48,0.565,0.976,0.855,1.463c0.297,0.474,0.614,0.983,1.258,1.803
		c1.146,1.481,2.637,3.033,4.475,3.697c1.891,0.721,4.04,0.255,6.016-0.714c1.001-0.502,1.927-1.22,2.835-2.028
		c0.915-0.827,1.294-1.272,1.859-1.913c4.043-4.82,6.511-9.984,10.532-15.393c1.736-2.23,2.082-5.56,1.312-8.218
		c-0.64-2.29-1.594-3.997-2.569-5.599c-1.979-3.152-4.23-5.856-6.482-8.631c-1.063-1.344-2.163-2.715-3.28-4.125
		c-0.522-0.679-1.004-1.364-1.435-2.019l-0.563-0.933c-0.066-0.117-0.074-0.135-0.074-0.131l0.12-0.113
		c1.012-0.777,2.588-1.909,4.242-2.835c0.784-0.459,1.653-0.869,2.467-1.297c0.155-0.117,1.478-0.749,2.308-1.1l2.743-1.21
		c1.969-0.872,4.033-1.68,6.076-2.464c1.714-0.666,2.039-3.533-0.325-5.901c-9.169-6.8-17.518-12.996-25.124-18.639
		c-6.991-5.077-13.162-9.57-18.618-13.525C89.084,45.347,80.934,39.713,74.89,35.756c-12.085-7.92-15.745-9.125-16.544-8.054
		C57.542,28.797,59.738,31.959,70.734,41.337z"/>
	<path d="M99.303,93.63c-1.274,2.916-3.156,5.362-4.55,6.543c-0.761,0.671-1.198,0.791-1.142,0.858
		c-0.145,0.089-0.346,0.131-0.542,0.089c-0.231,0.205-1.023-0.919-1.462-1.902c-1.688-4.312-2.5-5.086-4.014-5.052
		c-0.692-0.037-1.384,0.035-1.991,0.874c-0.567,0.877-1.233,2.446-0.974,5.836c0.09,0.858,0.242,1.838,0.67,3.008
		c0.286,1.039,1.332,2.842,2.731,4.054c1.409,1.326,3.547,2.075,5.889,1.994c2.563-0.054,4.782-1.057,6.375-2.217
		c3.361-2.432,5.881-5.577,8.041-9.91c0.682-1.357,3.364-7.313,0.226-10.542c-0.678-0.771-1.583-1.955-2.089-2.438l-1.452-1.3
		c-0.969-0.821-1.965-1.661-2.997-2.53C85.581,67.839,75.458,61.353,69.37,57.899c-6.106-3.37-8.248-3.353-9.073-2.218
		c-0.828,1.133-0.189,3.163,4.805,7.991c4.916,4.871,14.522,12.396,30.472,25.157c0.952,0.805,1.875,1.578,2.772,2.327l1.246,1.089
		c0.351,0.341,0.083,0.072,0.156,0.131c0.007-0.003,0.024,0.011,0.031,0.021c-0.031,0.127,0.103-0.281-0.035,0.179L99.303,93.63z"/>
</g>
</svg>
