<?xml version="1.0" encoding="utf-8"?>
<!-- Generator: Adobe Illustrator 16.0.3, SVG Export Plug-In . SVG Version: 6.00 Build 0)  -->
<!DOCTYPE svg PUBLIC "-//W3C//DTD SVG 1.1//EN" "http://www.w3.org/Graphics/SVG/1.1/DTD/svg11.dtd">
<svg version="1.1" id="Ebene_1" xmlns="http://www.w3.org/2000/svg" xmlns:xlink="http://www.w3.org/1999/xlink" x="0px" y="0px"
	 width="200px" height="200px" viewBox="0 0 200 200" enable-background="new 0 0 200 200" xml:space="preserve">
<g>
	<path d="M108.189,39.48c-2.719-3.085-5.961-4.674-35.334,21.155c-29.369,25.826-32.023,32.61-29.304,35.697
		c2.722,3.087,9.781,1.336,39.149-24.516C112.073,45.992,110.906,42.572,108.189,39.48z"/>
	<path d="M131.066,62.361c-2.721-3.094-5.961-4.678-35.332,21.151c-29.372,25.829-32.027,32.608-29.305,35.696
		c2.718,3.087,9.78,1.328,39.149-24.511C134.949,68.871,133.783,65.448,131.066,62.361z"/>
	<path d="M120.469,108.251c-29.369,25.825-32.023,32.604-29.305,35.692c2.719,3.088,9.779,1.332,39.148-24.508
		c29.375-25.825,28.205-29.25,25.484-32.338C153.085,84.004,149.842,82.421,120.469,108.251z"/>
</g>
</svg>
