<?xml version="1.0" encoding="utf-8"?>
<!-- Generator: Adobe Illustrator 16.0.3, SVG Export Plug-In . SVG Version: 6.00 Build 0)  -->
<!DOCTYPE svg PUBLIC "-//W3C//DTD SVG 1.1//EN" "http://www.w3.org/Graphics/SVG/1.1/DTD/svg11.dtd">
<svg version="1.1" id="Ebene_1" xmlns="http://www.w3.org/2000/svg" xmlns:xlink="http://www.w3.org/1999/xlink" x="0px" y="0px"
	 width="200px" height="200px" viewBox="0 0 200 200" enable-background="new 0 0 200 200" xml:space="preserve">
<path d="M165.231,102.69c-0.44-0.21-0.968-0.068-1.247,0.328c-6.399,9.101-15.192,15.907-25.563,19.822
	c4.819-7.397,7.352-15.879,7.352-24.71c0-4.127-0.584-8.28-1.736-12.351c0.004-0.034,0.005-0.067,0.005-0.102
	c0-0.125-0.022-0.245-0.064-0.355c-2.286-13.775-10.069-27.606-21.377-37.976c-11.737-10.765-25.762-16.692-39.49-16.692
	c-2.484,0-4.972,0.199-7.394,0.592c-4.481,0.729-9.028,2.078-13.516,4.01c-0.448,0.193-0.691,0.68-0.577,1.154
	c0.115,0.474,0.551,0.791,1.041,0.762c1.25-0.085,2.518-0.129,3.769-0.129c14.362,0,28.253,5.725,38.555,15.801
	c-1.655-0.188-3.236-0.281-4.78-0.281c-13.293,0-25.906,5.831-34.543,15.93c-10.453,10.173-17.668,24.796-19.796,40.12
	c-2.242,16.146,1.313,31.096,10.009,42.097c2.813,3.559,6.207,6.872,10.086,9.85c0.18,0.139,0.395,0.207,0.609,0.207
	c0.003,0,0.006,0,0.01,0c0.586-0.01,1.01-0.444,1.01-1c0-0.267-0.104-0.509-0.274-0.688c-7.696-11.913-10.473-26.482-7.782-40.421
	c7.733,15.306,23.388,25.038,40.672,25.038c0.248,0,0.493-0.018,0.739-0.035c0.137-0.01,0.273-0.021,0.411-0.025
	c2.085,0.182,4.21,0.274,6.316,0.274c22.954,0,43.146-10.354,52.697-27.02c2.258-3.944,4.072-8.327,5.394-13.027
	C165.897,103.396,165.672,102.899,165.231,102.69z M100.208,75.537c12.458,0,22.593,10.136,22.593,22.594
	c0,12.458-10.135,22.594-22.593,22.594c-12.459,0-22.595-10.136-22.595-22.594C77.613,85.672,87.749,75.537,100.208,75.537z"/>
</svg>
