<?xml version="1.0" encoding="utf-8"?>
<!-- Generator: Adobe Illustrator 16.0.3, SVG Export Plug-In . SVG Version: 6.00 Build 0)  -->
<!DOCTYPE svg PUBLIC "-//W3C//DTD SVG 1.1//EN" "http://www.w3.org/Graphics/SVG/1.1/DTD/svg11.dtd">
<svg version="1.1" id="Ebene_1" xmlns="http://www.w3.org/2000/svg" xmlns:xlink="http://www.w3.org/1999/xlink" x="0px" y="0px"
	 width="200px" height="200px" viewBox="0 -1 200 200" enable-background="new 0 -1 200 200" xml:space="preserve">
<path d="M66.804,54.014c-2.698,0-4.896,2.195-4.906,4.896c0,0-0.068,34.468-0.068,50.22c0,23.662,35.175,42.062,36.669,42.831
	c0.684,0.351,1.458,0.54,2.24,0.54c0.816,0,1.621-0.202,2.326-0.587c1.512-0.818,37.002-20.244,37.002-43.201V58.917
	c0-2.701-2.198-4.903-4.905-4.903c-2.698,0-4.901,2.202-4.901,4.903v0.392h-24.752v-0.304c0-2.702-2.201-4.904-4.903-4.904
	c-2.703,0-4.905,2.202-4.905,4.904v0.304H71.715v-0.392C71.707,56.216,69.51,54.014,66.804,54.014z M71.64,109.129
	c0-4.653,0.005-10.948,0.021-17.51c0.017-0.065,0.046-0.16,0.046-0.273V69.116h23.982v69.83
	C87.931,133.894,71.64,121.774,71.64,109.129z M105.506,138.948V69.116h24.75v39.599
	C130.254,121.262,112.151,134.51,105.506,138.948z"/>
</svg>
