<svg id="Layer_1" data-name="Layer 1" xmlns="http://www.w3.org/2000/svg" viewBox="0 0 134.27 201"><title>rdm</title><path d="M195,148.5a9.5,9.5,0,0,1-9.5,9.5,9.66,9.66,0,0,1-3.65-.72,33.8,33.8,0,0,0-4.86-4.55,32.82,32.82,0,0,0-16-6.49,32.1,32.1,0,0,0-4-.24,33,33,0,1,0,0,66h1c1,0,2-.11,3-.22a33.49,33.49,0,0,0,7-1.65,9.5,9.5,0,0,1,5.07,16.23,49.23,49.23,0,0,1-9.43,2.21A50.42,50.42,0,0,1,157,229c-.35,0-.71,0-1.06,0a49.19,49.19,0,0,1-10.07-1.23A50,50,0,0,1,141,131.62C141.2,74,145.6,28,151,28s9.68,44.73,10,101.15a49.75,49.75,0,0,1,26.2,10,48.68,48.68,0,0,1,7.53,7A9.33,9.33,0,0,1,195,148.5Z" transform="translate(-60.73 -28)"/><circle cx="95.77" cy="150.5" r="16.5"/><path d="M108.5,218a5.5,5.5,0,0,1-5.5,5.5,5.37,5.37,0,0,1-2.58-.65Q98.93,221,97.6,219c-.8-1.16-1.57-2.34-2.29-3.55-15,4.77-24.23,6.59-25.1,4.61s6.52-7.37,19.9-15a70.51,70.51,0,0,1-4.92-21.38c-15.51-2.15-24.53-4.44-24.46-6.6s9.1-3.86,24.56-5a71,71,0,0,1,7-25.06c-13.67-9.86-21.15-16.58-20-18.53S84,130,100.83,137.65l2.25,1a6,6,0,0,1,2.3,6c-.62,1-1.22,2.09-1.78,3.16-.91,1.72-1.75,3.49-2.52,5.29a65.74,65.74,0,0,0-4.75,31.92,65,65,0,0,0,9,27.1c.25.43.51.86.78,1.28q1.07,1.71,2.25,3.33A5.34,5.34,0,0,1,108.5,218Z" transform="translate(-60.73 -28)"/></svg>