<svg id="Layer_1" data-name="Layer 1" xmlns="http://www.w3.org/2000/svg" viewBox="0 0 183 178"><title>sam</title><path d="M190.63,73.71c-1-.9-2.1-1.77-3.19-2.61a4.23,4.23,0,0,0-.94-.1,4.51,4.51,0,0,0-4.19,6.15c.53.65,1,1.32,1.55,2a75.7,75.7,0,0,1,12.28,66V145a63.06,63.06,0,0,0-1.69-14.66c-4.23-7.86-10.22-13.63-17.1-16.06-1.12-.35-2.25-.65-3.4-.92h-.06A52.6,52.6,0,0,0,162,112h-.44a53,53,0,0,0-21.2,4.62c0-.26-.11-.52-.16-.78q-.93-4.56-1.86-8.85c-1.53-7.11-3.08-13.68-4.6-19.64,0,0,0,0,0,0C132.07,83.2,130.31,81,128.5,81c-2.75,0-5.38,5.11-7.76,14.34,0,.07,0,.14,0,.21-.47,2-1,4.1-1.42,6.21-.39,1.72-.77,3.47-1.16,5.24q-1.41,6.48-2.82,13.39a63.27,63.27,0,0,1-7.78,3.08,67.22,67.22,0,0,1-15.36,3H91c-.61,0-1.21,0-1.82,0-.23,0-.45,0-.68,0a7.81,7.81,0,0,1-1.28-.1c-4.44-.69-8.56-5-12-11.9A147.19,147.19,0,0,1,70.51,87a75.52,75.52,0,0,1,89.86-25.27c1,.39,1.94.82,2.89,1.26h.24a4.5,4.5,0,0,0,3.64-7.14c-.71-.55-1.44-1.09-2.17-1.61a81.5,81.5,0,0,0-100.6,128c1,.9,2.1,1.77,3.19,2.61a4.23,4.23,0,0,0,.94.1,4.51,4.51,0,0,0,4.19-6.15c-.53-.65-1-1.32-1.55-2A75.69,75.69,0,0,1,58.87,110.8c0,.23,0,.46,0,.69a63.06,63.06,0,0,0,1.69,14.66c4.23,7.86,10.22,13.63,17.1,16.06,1.12.35,2.25.65,3.4.92h.06A52.61,52.61,0,0,0,93,144.49h.44a52.8,52.8,0,0,0,17.82-3.25q-.34,1.88-.69,3.78c-1.74,9.61-3.45,19.63-5.09,30h44.9c-2.11-14.41-4.34-28-6.63-40.64,1.22-.49,2.47-.93,3.74-1.34a67.22,67.22,0,0,1,15.36-3H164c.61,0,1.21,0,1.82,0,.23,0,.45,0,.68,0a7.8,7.8,0,0,1,1.28.1c4.44.69,8.56,5,12,11.9a146.5,146.5,0,0,1,4.66,27h0a75.53,75.53,0,0,1-89.82,25.21c-1-.39-1.94-.82-2.89-1.26H91.5a4.5,4.5,0,0,0-3.64,7.14c.71.55,1.44,1.09,2.17,1.61a81.5,81.5,0,0,0,100.6-128ZM122.14,158l5.63-40h.46l5.63,40Z" transform="translate(-36 -39)"/></svg>