<?xml version="1.0" encoding="utf-8"?>
<!-- Generator: Adobe Illustrator 16.0.3, SVG Export Plug-In . SVG Version: 6.00 Build 0)  -->
<!DOCTYPE svg PUBLIC "-//W3C//DTD SVG 1.1//EN" "http://www.w3.org/Graphics/SVG/1.1/DTD/svg11.dtd">
<svg version="1.1" id="Ebene_1" xmlns="http://www.w3.org/2000/svg" xmlns:xlink="http://www.w3.org/1999/xlink" x="0px" y="0px"
	 width="200px" height="200px" viewBox="0 0 200 200" enable-background="new 0 0 200 200" xml:space="preserve">
<path d="M68.754,131.892c6.573,0,13.008-2.26,18.136-6.376c6.091-5.118,9.84-12.503,10.271-20.215
	c0.462-5.749-1.02-11.398-4.423-16.823c-2.56-3.784-5.667-6.705-9.272-8.719c0.979-0.176,2.033-0.33,3.156-0.497l1.448-0.223
	c2.218-0.484,4.726-0.619,7.627-0.773l2.247-0.126c7.878-0.233,13.859,0.557,18.675,1.507c-3.702,2.013-6.882,4.98-9.509,8.863
	c-3.377,5.393-4.86,11.042-4.397,16.756c0.432,7.747,4.182,15.132,10.288,20.26c5.111,4.101,11.543,6.36,18.116,6.36
	c1.403,0,2.8-0.104,4.133-0.31c8.369-1.165,13.751-5.896,16.14-8.539c1.57-1.445,2.613-3.178,3.534-4.7
	c0.29-0.479,0.579-0.975,0.979-1.612c0.889-2.125,1.723-4.117,2.183-6.174c0.067-0.516,0.154-1.03,0.229-1.535
	c0.216-1.353,0.422-2.63,0.412-3.946l-0.049-0.931c-0.07-1.304-0.138-2.501-0.321-3.684c-0.689-2.851-1.311-4.932-2.267-6.411
	c-0.74-1.525-1.622-2.739-2.581-3.569c-1.783-1.691-3.154-1.994-4.211-1.252c-1.486,1.017-1.036,3.324-0.875,4.165
	c0.174,0.65,0.425,1.679,0.631,3.264c0.244,0.894,0.315,2.054,0.393,3.395l0.09,1.223l-0.271,3.228
	c-0.077,0.614-0.264,1.236-0.45,1.89c-0.158,0.557-0.322,1.136-0.412,1.603c-0.28,0.824-0.715,1.706-1.172,2.633
	c-0.189,0.354-0.367,0.728-0.547,1.102c-0.335,0.405-0.638,0.843-0.953,1.29c-0.592,0.86-1.165,1.665-2.086,2.392
	c-1.593,1.581-5.018,4.326-9.998,4.874c-4.558,0.563-9.617-0.795-13.297-3.712c-3.608-3.08-5.896-7.483-6.276-12.125
	c-0.384-3.308,0.376-6.673,2.288-10.256c3.328-5.64,7.838-7.643,10.236-8.708c1.497-0.627,2.691-0.985,3.65-1.271
	c0.979-0.298,1.744-0.525,2.32-0.881c0.479-0.271,0.854-0.571,1.14-0.921c0.853-0.279,1.458-0.78,1.813-1.488
	c1.294-2.614-1.857-5.021-5.53-7.277c-4.822-2.49-13.803-7.117-30.045-7.117c-0.765,0-1.539,0.003-2.369,0.028l-0.648,0.037
	c-4.151,0.228-7.737,0.429-10.862,1.217c-3.444,0.661-6.266,1.249-8.572,2.198c-2.357,0.84-4.318,1.579-6.047,2.307
	c-1.488,0.809-2.768,1.572-3.81,2.268c-3.569,2.384-4.485,4.101-3.391,6.33c0.368,0.768,0.981,1.671,2.419,2.026
	c0.174,0.135,0.358,0.261,0.55,0.362c0.617,0.386,1.388,0.616,2.366,0.911c0.96,0.286,2.157,0.642,3.633,1.262
	c2.422,1.071,6.932,3.078,10.234,8.675c1.938,3.626,2.692,6.991,2.312,10.337c-0.38,4.604-2.667,9.007-6.243,12.059
	c-3.715,2.948-8.685,4.313-13.346,3.74c-4.965-0.548-8.386-3.293-10.097-4.983c-0.814-0.617-1.377-1.429-1.975-2.282
	c-0.313-0.447-0.619-0.885-0.949-1.29c-0.182-0.374-0.362-0.747-0.547-1.102c-0.463-0.927-0.896-1.809-1.142-2.497
	c-0.124-0.608-0.286-1.182-0.447-1.738c-0.188-0.653-0.365-1.288-0.44-1.842l-0.265-3.087l0.092-1.411
	c0.075-1.341,0.146-2.505,0.425-3.566c0.176-1.417,0.425-2.441,0.617-3.174c0.147-0.759,0.604-3.069-0.878-4.08
	c-1.089-0.755-2.458-0.433-4.187,1.212c-0.997,0.867-1.881,2.081-2.561,3.494c-1.016,1.592-1.641,3.673-2.346,6.623
	c-0.161,1.086-0.228,2.283-0.297,3.584l-0.053,0.998c-0.004,1.255,0.201,2.533,0.412,3.885c0.082,0.499,0.16,1.014,0.251,1.626
	c0.438,1.967,1.274,3.966,2.268,6.276c0.296,0.451,0.583,0.934,0.879,1.42c0.917,1.522,1.962,3.248,3.462,4.619
	c2.459,2.717,7.842,7.448,16.197,8.61C65.96,131.782,67.354,131.892,68.754,131.892z"/>
</svg>
