<?xml version="1.0" encoding="utf-8"?>
<!-- Generator: Adobe Illustrator 16.0.3, SVG Export Plug-In . SVG Version: 6.00 Build 0)  -->
<!DOCTYPE svg PUBLIC "-//W3C//DTD SVG 1.1//EN" "http://www.w3.org/Graphics/SVG/1.1/DTD/svg11.dtd">
<svg version="1.1" id="Ebene_1" xmlns="http://www.w3.org/2000/svg" xmlns:xlink="http://www.w3.org/1999/xlink" x="0px" y="0px"
	 width="200px" height="200px" viewBox="0 0 200 200" enable-background="new 0 0 200 200" xml:space="preserve">
<path d="M142.661,66.196c-0.832,1.124-1.188,2.666-1.789,5.224c-0.177,0.779-0.386,1.652-0.647,2.704l-1.638,7.316
	c-0.336,1.597-0.755,3.093-1.302,4.602l-0.362,1.087c-0.155,0.476-0.315,0.965-0.487,1.467c-7.748-3.34-20.809-9.286-29.508-14.977
	c-12.106-7.925-36.764-29.124-39.594-31.561c-2.024-1.748-5.142-1.955-7.392-0.478c-2.282,1.521-3.285,4.396-2.442,6.994
	c0.111,0.34,11.105,34.251,14.362,49.367c2.171,10.095,3.869,25.605,4.757,34.754c-3.97,0.142-7.39-0.021-10.272-0.174l-1.85-0.089
	c-2.212-0.295-4.295-0.489-6.256-0.563c-1.671-0.229-3.148-0.303-4.306-0.239c-2.44,0.145-3.941,0.931-4.585,2.41
	c-1.01,2.333,1.083,4.303,1.776,4.957c0.928,0.865,2.217,1.808,3.9,2.859c1.694,0.879,3.882,1.838,6.769,2.942
	c4.616,1.396,10.984,2.99,19.362,2.99c1.865,0,3.787-0.074,5.708-0.234c14.699-1.326,28.137-6.819,39.952-16.354
	c11.346-9.515,19.222-21.119,23.4-34.461c0.759-2.074,1.175-4.104,1.533-5.902l0.226-1.087c0.463-1.99,0.752-4.031,0.858-6.033
	l0.064-0.839c0.11-1.496,0.211-2.854,0.225-4.202l-0.269-3.941c-0.225-3.74-1.073-6.644-2.625-8.932
	c-1.013-1.348-2.355-1.816-3.949-1.656C145.084,64.252,143.715,64.586,142.661,66.196z M131.389,99.762
	c-3.93,7.021-8.943,13.048-15.278,18.374c-8.089,6.506-17.042,10.762-27.328,13.02c-0.899-9.312-2.646-25.111-4.941-35.79
	c-1.706-7.932-5.296-20.289-8.378-30.451c8.104,6.66,18.048,14.562,24.76,18.956C109.699,90.066,123.338,96.306,131.389,99.762z"/>
</svg>
