<?xml version="1.0" encoding="utf-8"?>
<!-- Generator: Adobe Illustrator 16.0.3, SVG Export Plug-In . SVG Version: 6.00 Build 0)  -->
<!DOCTYPE svg PUBLIC "-//W3C//DTD SVG 1.1//EN" "http://www.w3.org/Graphics/SVG/1.1/DTD/svg11.dtd">
<svg version="1.1" id="Ebene_1" xmlns="http://www.w3.org/2000/svg" xmlns:xlink="http://www.w3.org/1999/xlink" x="0px" y="0px"
	 width="200px" height="200px" viewBox="0 0 200 200" enable-background="new 0 0 200 200" xml:space="preserve">
<path d="M49.043,130.262c1.213,1.866,2.584,3.358,3.628,4.422l0.37,0.386c1.021,1.083,1.966,2.091,2.957,3.044
	c2.052,1.649,3.918,3.076,5.655,4.287c3.368,1.873,5.539,2.698,7.046,2.698c1.329,0,2.04-0.646,2.434-1.156
	c0.921-0.362,1.632-1.262,2.108-2.668c0.185-0.49,0.313-1.065,0.451-1.728c0.073-0.339,0.146-0.707,0.21-0.991
	c0.423-1.234,0.818-2.661,1.171-4.195c0.215-0.866,0.629-1.806,1.114-2.905c0.344-0.781,0.703-1.596,0.905-2.229
	c0.294-0.439,0.581-0.899,0.876-1.369c1.011-1.603,2.048-3.256,3.683-4.831c2.687-2.793,8.476-7.466,17.001-7.466
	c0.887,0,1.798,0.047,2.768,0.159c7.132,0.645,13.018,4.179,17.454,10.458l1.928,3.087l1.237,3.182
	c0.511,0.967,0.703,1.924,0.887,2.847c0.128,0.646,0.25,1.237,0.426,1.718l0.5,1.589c0.074,0.574,0.166,1.078,0.268,1.515
	c0.213,0.927,0.473,1.65,0.808,2.219c0.64,1.085,1.461,1.497,2.197,1.677c0.612,0.595,1.719,0.99,3.821,0.399
	c1.475-0.467,4.552-1.444,8.328-4.478l0.761-0.588c0.717-0.534,1.488-1.105,2.319-1.843l3.091-3.158
	c1.394-1.369,2.532-2.746,3.499-4.189c0.335-0.5,0.693-0.987,1.072-1.501c0.815-1.106,1.66-2.255,2.354-3.561
	c4.018-6.698,8.608-17.836,7.702-32.932c-0.74-11.613-4.449-21.968-10.981-30.7c-1.185-1.807-2.51-3.251-3.646-4.407l-0.551-0.594
	c-0.957-1.001-1.84-1.942-2.776-2.835c-2.094-1.679-3.956-3.099-5.66-4.282c-3.367-1.863-5.539-2.698-7.04-2.698
	c-1.339,0-2.049,0.654-2.44,1.167c-0.928,0.379-1.63,1.303-2.107,2.738c-0.253,0.739-0.453,1.665-0.585,2.709
	c-0.426,1.242-0.818,2.67-1.19,4.3c-0.142,0.79-0.534,1.669-0.986,2.687c-0.352,0.793-0.73,1.637-1.042,2.552
	c-0.311,0.468-0.622,0.971-0.943,1.482c-0.964,1.541-1.958,3.146-3.533,4.649c-2.698,2.821-8.508,7.572-17.089,7.572
	c-0.887,0-1.801-0.049-2.878-0.166c-1.567-0.006-3.039-0.471-4.465-0.917c-0.593-0.19-1.179-0.371-1.538-0.443l-0.516-0.242
	c-1.659-0.796-3.225-1.538-4.483-2.451c-2.636-1.905-4.8-4.124-6.39-6.499c-0.334-0.601-0.681-1.158-1.021-1.693
	c-0.347-0.555-0.682-1.085-0.902-1.464l-1.236-3.179c-0.36-0.721-0.597-1.473-0.729-2.362l-0.566-2.323
	c-0.323-0.951-0.465-1.756-0.582-2.461l-0.115-0.62c-0.207-0.921-0.465-1.646-0.793-2.227c-0.634-1.102-1.453-1.521-2.188-1.714
	c-0.61-0.589-1.707-0.993-3.834-0.408c-1.6,0.513-4.577,1.471-8.322,4.474l-0.688,0.519c-0.739,0.558-1.532,1.14-2.394,1.903
	l-3.099,3.166c-1.399,1.377-2.545,2.748-3.497,4.175c-0.332,0.492-0.687,0.971-1.057,1.476c-0.823,1.118-1.673,2.278-2.372,3.586
	c-4.019,6.69-8.628,17.821-7.729,32.918C38.814,111.164,42.516,121.518,49.043,130.262z M65.979,62.366l1.131,4.408
	c0.469,1.191,1.083,2.41,1.746,3.716l0.589,1.17c2.188,3.892,5.256,7.357,9.119,10.317c2.199,1.665,4.854,2.999,7.556,4.259
	l1.495,0.481c2.354,0.769,5.021,1.651,7.794,1.729c2.598,0.442,5.641,0.188,8.346-0.126l1.434-0.161
	c1.136-0.112,2.15-0.446,3.131-0.783c0.433-0.149,0.852-0.295,1.396-0.439c0.419-0.163,0.848-0.291,1.274-0.417
	c0.94-0.283,1.917-0.574,2.685-1.09c4.774-2.386,8.74-5.498,11.436-8.923c2.563-2.881,3.942-5.889,5.152-8.544l0.525-1.21
	c0.186-0.819,0.388-1.608,0.581-2.361c0.53-2.045,0.987-3.81,0.937-5.495c0-0.131,0-0.251,0-0.373
	c0.717,0.793,1.494,1.619,2.3,2.444l2.44,3.199c0.865,1.066,1.785,2.236,2.604,3.736c4.973,7.676,7.668,15.857,8.256,25.002
	c0.568,9.516-1.291,18.489-5.568,26.743c-0.43,0.967-0.983,1.853-1.525,2.705c-0.354,0.561-0.696,1.112-1.008,1.674
	c-0.635,1.193-1.386,2.313-2.41,3.56l-1.606,2.175l-2.85,3.34c-0.099,0.111-0.187,0.227-0.281,0.332
	c-0.003-1.197-0.102-2.553-0.555-3.987l-1.16-4.456c-0.658-1.454-1.437-3.029-2.339-4.784c-2.242-3.871-5.309-7.297-9.133-10.219
	c-1.934-1.406-4.342-2.759-7.507-4.186l-1.396-0.456c-2.363-0.774-5.049-1.661-7.841-1.734c-1.035-0.17-2.104-0.261-3.263-0.261
	c-1.752,0-3.418,0.192-5.031,0.385l-1.417,0.163c-1.138,0.092-2.139,0.437-3.112,0.768c-0.43,0.142-0.855,0.284-1.396,0.439
	c-0.419,0.155-0.845,0.276-1.268,0.406c-0.932,0.283-1.896,0.577-2.683,1.081c-4.712,2.36-8.669,5.424-11.398,8.832
	c-2.689,3.036-4.172,6.289-5.363,8.913l-0.653,2.015c-0.651,2.449-1.216,4.564-1.262,6.54c0,0.139,0,0.281,0,0.416
	c-0.737-0.822-1.529-1.668-2.363-2.526l-2.438-3.208c-0.818-1.005-1.757-2.198-2.601-3.74c-4.962-7.686-7.651-15.868-8.229-25.008
	c-0.569-9.512,1.305-18.483,5.594-26.73c0.433-0.959,0.991-1.846,1.523-2.696c0.356-0.565,0.703-1.115,1.015-1.681
	c0.624-1.173,1.381-2.287,2.421-3.559l2.236-3.026l2.229-2.488c0.077-0.099,0.156-0.191,0.231-0.28v0.082
	C65.431,59.76,65.6,61.101,65.979,62.366z"/>
</svg>
