<?xml version="1.0" encoding="utf-8"?>
<!-- Generator: Adobe Illustrator 16.0.3, SVG Export Plug-In . SVG Version: 6.00 Build 0)  -->
<!DOCTYPE svg PUBLIC "-//W3C//DTD SVG 1.1//EN" "http://www.w3.org/Graphics/SVG/1.1/DTD/svg11.dtd">
<svg version="1.1" id="Ebene_1" xmlns="http://www.w3.org/2000/svg" xmlns:xlink="http://www.w3.org/1999/xlink" x="0px" y="0px"
	 width="200px" height="200px" viewBox="0 0 200 200" enable-background="new 0 0 200 200" xml:space="preserve">
<g>
	<path d="M128.56,53.749c-0.2-0.635-0.383-1.271-0.563-1.895c-0.365-1.258-0.741-2.555-1.317-3.874l-2.695-5.096l-3.198-4.069
		c-0.759-1.009-1.687-1.788-2.495-2.476c-0.4-0.339-0.801-0.673-1.152-1.012c-1.093-1.086-2.375-2.022-3.894-2.836l-1.194-0.723
		c-0.805-0.486-1.578-0.957-2.523-1.418c-0.812-0.284-1.581-0.576-2.315-0.864c-1.409-0.536-2.745-1.051-4.077-1.356l-5.6-0.924
		c-0.412-0.099-0.813,0.031-1.133,0.279c-0.32,0.25-0.525,0.627-0.55,1.033l-0.095,1.159c-0.043,0.55,0.223,1.075,0.691,1.36
		c0,0,1.976,1.209,4.9,2.846c0.714,0.437,1.438,1.048,2.211,1.677c0.78,0.642,1.603,1.311,2.298,1.761
		c0.492,0.471,0.97,1.01,1.451,1.557l0.822,0.912c0.362,0.43,0.763,0.818,1.227,1.254c0.226,0.274,0.415,0.576,0.619,0.875
		l0.464,0.688c1.019,1.249,1.777,2.785,2.582,4.412c0.362,0.727,0.721,1.462,0.995,1.882l1.097,3.701
		c0.06,0.397,0.104,0.775,0.147,1.129c0.091,0.822,0.189,1.563,0.467,2.476c0.06,0.233,0.06,1.034,0.06,1.871l0.028,3.129
		c0,0.048-0.014,0.099-0.014,0.145c-0.039,0.112-0.088,0.328-0.088,0.335l-0.145,0.543c-0.126,0.558-0.204,1.116-0.273,1.67
		l-0.078,0.68c-0.007,0.785-0.309,1.609-0.649,2.479c-0.123,0.336-0.257,0.677-0.404,1.16c-0.242,1.075-0.893,2.084-1.666,3.282
		c-0.168,0.31-0.319,0.629-0.457,0.956c-0.126,0.277-0.238,0.572-0.326,0.713l-2.323,3.091l-1.627,1.411
		c-0.812,0.794-1.799,1.699-2.92,2.382c-0.042,0.021-0.323,0.234-0.362,0.259c-0.878,0.655-1.88,1.4-2.695,1.68
		c-0.527,0.257-1.047,0.545-1.469,0.807c-0.053,0.033-0.449,0.299-0.499,0.332l-6.262,1.543c-0.083,0.014-0.169,0.04-0.248,0.075
		l-0.281,0.026c-2.098,0.237-4.065,0.499-6.283,0.272c-5.314-0.352-9.845-2.141-12.114-3.194c-1.084-0.453-2.246-1.066-3.581-1.871
		l-1.346-0.771c-0.512-0.306-1.181-0.241-1.651,0.137l-0.9,0.738c-0.291,0.24-0.479,0.601-0.518,0.982
		c-0.037,0.385,0.075,0.772,0.326,1.064l1.26,1.548c0.587,0.73,1.391,1.728,2.548,2.778c2.589,2.555,6.991,6.042,13.213,8.089
		c2.403,0.903,5.254,1.429,8.976,1.706v64.968c0,3.216,2.605,5.823,5.818,5.823c3.216,0,5.816-2.607,5.816-5.823V94.866
		c0.376-0.121,0.738-0.196,1.104-0.344c2.104-0.473,3.929-1.466,5.861-2.523l0.941-0.508c0.604-0.309,1.209-0.625,1.933-1.096
		l4.997-4.075l4.122-4.886c0.436-0.626,0.812-1.299,1.171-1.976l0.48-0.868c1.041-1.86,2.112-3.876,2.598-6.046l0.309-1.014
		c0.527-1.72,1.076-3.491,1.083-5.222C129.747,62.504,129.561,58.447,128.56,53.749z"/>
	<circle cx="93.649" cy="63.057" r="11.547"/>
</g>
</svg>
